<svg xmlns="http://www.w3.org/2000/svg" width="10.889" height="12.972" viewBox="0 0 10.889 12.972"><defs><style>.a{fill:#bbbbc7;stroke:#bbbbc7;stroke-width:0.3px;}</style></defs><g transform="translate(-41.598 0.15)"><g transform="translate(41.748)"><path class="a" d="M51.99,10.392h-.2a4.488,4.488,0,0,1-.96-2.766V5.416a3.792,3.792,0,0,0-2.791-3.652,1.165,1.165,0,1,0-2,0,3.792,3.792,0,0,0-2.791,3.652v2.21a4.483,4.483,0,0,1-.96,2.766H42.1a.352.352,0,1,0,0,.7h3.048a1.925,1.925,0,0,0,3.787,0h3.051a.351.351,0,0,0,.352-.352A.346.346,0,0,0,51.99,10.392ZM47.044.7a.461.461,0,1,1-.461.461A.462.462,0,0,1,47.044.7Zm0,11.265a1.227,1.227,0,0,1-1.172-.873h2.345A1.227,1.227,0,0,1,47.044,11.969ZM43.16,10.392a5.2,5.2,0,0,0,.8-2.766V5.416a3.086,3.086,0,1,1,6.171,0v2.21a5.193,5.193,0,0,0,.8,2.766Z" transform="translate(-41.748)"/></g></g></svg>