<svg xmlns="http://www.w3.org/2000/svg" width="12.643" height="12.636" viewBox="0 0 12.643 12.636"><defs><style>.a{fill:#bbbbc7;stroke:#bbbbc7;stroke-width:0.3px;}</style></defs><g transform="translate(-16.993 42.84)"><g transform="translate(17.143 -42.69)"><path class="a" d="M11.85,3.934A6.047,6.047,0,0,0,8.564.661a6.066,6.066,0,0,0-2.4-.493,6,6,0,0,0-2.4.493A6.066,6.066,0,0,0,.486,3.934a6.166,6.166,0,0,0,0,4.8,6.079,6.079,0,0,0,3.28,3.28,6,6,0,0,0,2.4.493,6.068,6.068,0,0,0,2.4-.493,6.06,6.06,0,0,0,3.287-3.28,6.088,6.088,0,0,0,0-4.8Zm-.985,5.122a5.414,5.414,0,0,1-1.984,1.977,5.315,5.315,0,0,1-2.72.729,5.226,5.226,0,0,1-2.106-.432,5.518,5.518,0,0,1-1.728-1.154A5.485,5.485,0,0,1,1.174,8.442,5.313,5.313,0,0,1,.749,6.329a5.305,5.305,0,0,1,.722-2.713A5.417,5.417,0,0,1,3.449,1.639,5.274,5.274,0,0,1,6.161.91a5.315,5.315,0,0,1,2.72.729,5.431,5.431,0,0,1,1.984,1.977,5.275,5.275,0,0,1,.729,2.713A5.325,5.325,0,0,1,10.865,9.056Z" transform="translate(0 -0.168)"/><path class="a" d="M287.856,114.795v-3.5a.389.389,0,0,0-.391-.378.38.38,0,0,0-.371.378v3.55a.308.308,0,0,1,.014.054.353.353,0,0,0,.1.3l2.018,2.018a.384.384,0,0,0,.52,0,.364.364,0,0,0,0-.526Z" transform="translate(-281.303 -108.687)"/></g></g></svg>