<svg xmlns="http://www.w3.org/2000/svg" width="22.9" height="25.71" viewBox="0 0 22.9 25.71"><defs><style>.a{fill:#f24a3c;stroke:#f24a3c;stroke-width:0.3px;}</style></defs><g transform="translate(-29.557 -8.13)"><g transform="translate(29.707 8.28)"><path class="a" d="M48.795,3.657H43.508V2.795A2.8,2.8,0,0,0,40.713,0H35.687a2.8,2.8,0,0,0-2.795,2.795v.862H27.605a.705.705,0,0,0,0,1.411H28.88V21.639a3.777,3.777,0,0,0,3.772,3.772h11.1a3.777,3.777,0,0,0,3.772-3.772V5.067h1.275a.705.705,0,1,0,0-1.411ZM34.3,2.795a1.387,1.387,0,0,1,1.384-1.384h5.026A1.387,1.387,0,0,1,42.1,2.795v.862H34.3ZM46.109,21.639A2.366,2.366,0,0,1,43.748,24h-11.1a2.366,2.366,0,0,1-2.361-2.361V5.067H46.115V21.639Z" transform="translate(-26.9)"/><path class="a" d="M230.405,159.275a.7.7,0,0,0,.705-.705V146.105a.705.705,0,0,0-1.411,0v12.46A.707.707,0,0,0,230.405,159.275Z" transform="translate(-219.105 -137.804)"/><path class="a" d="M142.305,172.524a.7.7,0,0,0,.705-.705V160.905a.705.705,0,1,0-1.411,0v10.913A.706.706,0,0,0,142.305,172.524Z" transform="translate(-135.608 -151.831)"/><path class="a" d="M318.505,172.524a.7.7,0,0,0,.705-.705V160.905a.705.705,0,1,0-1.41,0v10.913A.7.7,0,0,0,318.505,172.524Z" transform="translate(-302.603 -151.831)"/></g></g></svg>